{"title":"Broken Blossoms(1919)MPEG-4[DaScubaDude]","uid":15198033,"size":885409914,"categoryP":"video","categoryS":"movies","magnet":"?xt=urn:btih:9edd9f52c71046d46466a0bd31b72e3f4a14f6be&amp;dn=Broken+Blossoms%281919%29MPEG-4%5BDaScubaDude%5D&amp;tr=udp%3A%2F%2Ftracker.leechers-paradise.org%3A6969&amp;tr=udp%3A%2F%2Fzer0day.ch%3A1337&amp;tr=udp%3A%2F%2Fopen.demonii.com%3A1337&amp;tr=udp%3A%2F%2Ftracker.coppersurfer.tk%3A6969&amp;tr=udp%3A%2F%2Fexodus.desync.com%3A6969","seeders":0,"leechers":1,"uploader":"dascuba","files":1,"time":1467588352,"description":"Broken Blossoms (1919)\r\nBroken Blossoms or The Yellow Man and the Girl (original title)\r\nNot Rated | 1h 30min | Drama | 20 October 1919 (USA)\r\nA frail waif, abused by her brutal boxer father in London's seedy Limehouse District, is befriended by a sensitive Chinese immigrant with tragic consequences.\r\nDirector: D.W. Griffith\r\nWriters: Thomas Burke (adapted from a story by), D.W. Griffith\r\nStars: Lillian Gish, Richard Barthelmess, Donald Crisp |\r\n\r\nGeneral\r\nComplete name                            : Broken Blossoms40422_1605_Title1.mp4\r\nFormat                                   : MPEG-4\r\nFormat profile                           : Base Media\r\nCodec ID                                 : isom (isom/iso2/avc1/mp41)\r\nFile size                                : 844 MiB\r\nDuration                                 : 1h 29mn\r\nOverall bit rate                         : 1 322 Kbps\r\nMovie name                               : 040422_1605\r\nGenre                                    : Drama\r\nWriting application                      : Lavf54.6.100\r\n\r\nVideo\r\nID                                       : 1\r\nFormat                                   : AVC\r\nFormat/Info                              : Advanced Video Codec\r\nFormat profile                           :   \r\nFormat settings, CABAC                   : No\r\nFormat settings, ReFrames                : 6 frames\r\nCodec ID                                 : avc1\r\nCodec ID/Info                            : Advanced Video Coding\r\nDuration                                 : 1h 29mn\r\nBit rate                                 : 1 188 Kbps\r\nWidth                                    : 720 pixels\r\nHeight                                   : 540 pixels\r\nDisplay aspect ratio                     : 4:3\r\nFrame rate mode                          : Constant\r\nFrame rate                               : 29.970 (30000/1001) fps\r\nColor space                              : YUV\r\nChroma subsampling                       : 4:2:0\r\nBit depth                                : 8 bits\r\nScan type                                : Progressive\r\nBits/(Pixel*Frame)                       : 0.102\r\nStream size                              : 758 MiB (90%)\r\n\r\nAudio\r\nID                                       : 2\r\nFormat                                   : AAC\r\nFormat/Info                              : Advanced Audio Codec\r\nFormat profile                           : LC\r\nCodec ID                                 : 40\r\nDuration                                 : 1h 29mn\r\nBit rate mode                            : Constant\r\nBit rate                                 : 128 Kbps\r\nChannel(s)                               : 2 channels\r\nChannel positions                        : Front: L R\r\nSampling rate                            : 44.1 KHz\r\nFrame rate                               : 43.066 fps (1024 spf)\r\nCompression mode                         : Lossy\r\nStream size                              : 81.7 MiB (10%)\r\nDefault                                  : Yes\r\nAlternate group                          : 1","torrent":{"xt":"urn:btih:9edd9f52c71046d46466a0bd31b72e3f4a14f6be","amp;dn":"Broken+Blossoms%281919%29MPEG-4%5BDaScubaDude%5D","amp;tr":["udp%3A%2F%2Ftracker.leechers-paradise.org%3A6969","udp%3A%2F%2Fzer0day.ch%3A1337","udp%3A%2F%2Fopen.demonii.com%3A1337","udp%3A%2F%2Ftracker.coppersurfer.tk%3A6969","udp%3A%2F%2Fexodus.desync.com%3A6969"],"infoHash":"9edd9f52c71046d46466a0bd31b72e3f4a14f6be","infoHashBuffer":{"type":"Buffer","data":[158,221,159,82,199,16,70,212,100,102,160,189,49,183,46,63,74,20,246,190]},"announce":[],"urlList":[]}}